<svg viewBox="0 0 1000 220" fill="none" xmlns="http://www.w3.org/2000/svg">
  <defs>
    <filter id="fg" x="-60%" y="-60%" width="220%" height="220%">
      <feGaussianBlur stdDeviation="2.5" result="b"/><feMerge><feMergeNode in="b"/><feMergeNode in="SourceGraphic"/></feMerge>
    </filter>
  </defs>
  <rect width="1000" height="220" rx="14" fill="#04060b"/>
  <rect x="0.5" y="0.5" width="999" height="219" rx="14" stroke="#1d2638"/>

  <text x="40" y="46" fill="#e6edf3" font-family="Segoe UI, Helvetica Neue, Arial, sans-serif" font-size="24" font-weight="650">FinSight Alpha</text>
  <text x="40" y="70" fill="#7d8aa0" font-family="Consolas, Menlo, monospace" font-size="12.5">Monte Carlo VaR/CVaR · Black–Scholes · Markowitz · HMM regimes · walk-forward ML</text>

  <!-- origin -->
  <circle cx="310" cy="125" r="4" fill="#22d3ee" filter="url(#fg)"/>
  <rect x="264" y="116" width="34" height="18" rx="4" fill="#0b1220" stroke="#22d3ee" stroke-opacity="0.5"/>
  <text x="281" y="129" text-anchor="middle" fill="#22d3ee" font-family="Consolas, Menlo, monospace" font-size="11">S0</text>

  <path d="M 310 125 L 341 119 L 372 125 L 403 123 L 434 121 L 465 132 L 496 133 L 527 132 L 558 136 L 589 143 L 620 142 L 651 146 L 682 139 L 713 137 L 744 134 L 775 125 L 806 115 L 837 105 L 868 103 L 899 102 L 930 99" stroke="#31415f" stroke-width="1.2" opacity="0.75" stroke-linejoin="round"
        stroke-dasharray="630" stroke-dashoffset="630">
    <animate attributeName="stroke-dashoffset" values="630;0" begin="0.15s" dur="1.9s" fill="freeze" calcMode="spline" keySplines="0.3 0 0.2 1"/>
  </path>
  <path d="M 310 125 L 341 124 L 372 125 L 403 131 L 434 123 L 465 119 L 496 101 L 527 96 L 558 76 L 589 63 L 620 73 L 651 53 L 682 59 L 713 61 L 744 58 L 775 62 L 806 66 L 837 74 L 868 72 L 899 66 L 930 60" stroke="#31415f" stroke-width="1.2" opacity="0.75" stroke-linejoin="round"
        stroke-dasharray="647" stroke-dashoffset="647">
    <animate attributeName="stroke-dashoffset" values="647;0" begin="0.24s" dur="1.9s" fill="freeze" calcMode="spline" keySplines="0.3 0 0.2 1"/>
  </path>
  <path d="M 310 125 L 341 119 L 372 128 L 403 114 L 434 106 L 465 99 L 496 83 L 527 98 L 558 80 L 589 78 L 620 74 L 651 87 L 682 72 L 713 80 L 744 75 L 775 74 L 806 69 L 837 74 L 868 66 L 899 65 L 930 68" stroke="#31415f" stroke-width="1.2" opacity="0.75" stroke-linejoin="round"
        stroke-dasharray="648" stroke-dashoffset="648">
    <animate attributeName="stroke-dashoffset" values="648;0" begin="0.33s" dur="1.9s" fill="freeze" calcMode="spline" keySplines="0.3 0 0.2 1"/>
  </path>
  <path d="M 310 125 L 341 137 L 372 144 L 403 138 L 434 138 L 465 132 L 496 145 L 527 145 L 558 141 L 589 137 L 620 134 L 651 130 L 682 120 L 713 137 L 744 117 L 775 82 L 806 79 L 837 75 L 868 77 L 899 73 L 930 70" stroke="#31415f" stroke-width="1.2" opacity="0.75" stroke-linejoin="round"
        stroke-dasharray="657" stroke-dashoffset="657">
    <animate attributeName="stroke-dashoffset" values="657;0" begin="0.42s" dur="1.9s" fill="freeze" calcMode="spline" keySplines="0.3 0 0.2 1"/>
  </path>
  <path filter="url(#fg)" d="M 310 125 L 341 122 L 372 120 L 403 132 L 434 135 L 465 130 L 496 144 L 527 148 L 558 145 L 589 138 L 620 140 L 651 135 L 682 129 L 713 121 L 744 119 L 775 125 L 806 123 L 837 114 L 868 118 L 899 119 L 930 124" stroke="#22d3ee" stroke-width="2.2" opacity="1" stroke-linejoin="round"
        stroke-dasharray="632" stroke-dashoffset="632">
    <animate attributeName="stroke-dashoffset" values="632;0" begin="0.51s" dur="1.9s" fill="freeze" calcMode="spline" keySplines="0.3 0 0.2 1"/>
  </path>
  <path d="M 310 125 L 341 123 L 372 123 L 403 111 L 434 117 L 465 131 L 496 132 L 527 130 L 558 127 L 589 119 L 620 110 L 651 106 L 682 98 L 713 93 L 744 77 L 775 80 L 806 81 L 837 69 L 868 46 L 899 46 L 930 56" stroke="#31415f" stroke-width="1.2" opacity="0.75" stroke-linejoin="round"
        stroke-dasharray="645" stroke-dashoffset="645">
    <animate attributeName="stroke-dashoffset" values="645;0" begin="0.60s" dur="1.9s" fill="freeze" calcMode="spline" keySplines="0.3 0 0.2 1"/>
  </path>
  <path d="M 310 125 L 341 121 L 372 127 L 403 120 L 434 128 L 465 126 L 496 134 L 527 135 L 558 133 L 589 122 L 620 117 L 651 115 L 682 121 L 713 123 L 744 118 L 775 122 L 806 130 L 837 129 L 868 126 L 899 124 L 930 131" stroke="#31415f" stroke-width="1.2" opacity="0.75" stroke-linejoin="round"
        stroke-dasharray="630" stroke-dashoffset="630">
    <animate attributeName="stroke-dashoffset" values="630;0" begin="0.69s" dur="1.9s" fill="freeze" calcMode="spline" keySplines="0.3 0 0.2 1"/>
  </path>
  <path d="M 310 125 L 341 128 L 372 124 L 403 117 L 434 129 L 465 136 L 496 130 L 527 130 L 558 135 L 589 129 L 620 128 L 651 134 L 682 118 L 713 121 L 744 128 L 775 132 L 806 120 L 837 123 L 868 115 L 899 120 L 930 126" stroke="#31415f" stroke-width="1.2" opacity="0.75" stroke-linejoin="round"
        stroke-dasharray="636" stroke-dashoffset="636">
    <animate attributeName="stroke-dashoffset" values="636;0" begin="0.78s" dur="1.9s" fill="freeze" calcMode="spline" keySplines="0.3 0 0.2 1"/>
  </path>
  <path d="M 310 125 L 341 120 L 372 129 L 403 121 L 434 126 L 465 131 L 496 130 L 527 152 L 558 153 L 589 173 L 620 155 L 651 136 L 682 145 L 713 152 L 744 149 L 775 150 L 806 133 L 837 128 L 868 119 L 899 118 L 930 127" stroke="#31415f" stroke-width="1.2" opacity="0.75" stroke-linejoin="round"
        stroke-dasharray="655" stroke-dashoffset="655">
    <animate attributeName="stroke-dashoffset" values="655;0" begin="0.15s" dur="1.9s" fill="freeze" calcMode="spline" keySplines="0.3 0 0.2 1"/>
  </path>
  <path d="M 310 125 L 341 122 L 372 121 L 403 123 L 434 122 L 465 132 L 496 128 L 527 140 L 558 136 L 589 144 L 620 140 L 651 152 L 682 154 L 713 158 L 744 164 L 775 161 L 806 156 L 837 145 L 868 154 L 899 151 L 930 149" stroke="#31415f" stroke-width="1.2" opacity="0.75" stroke-linejoin="round"
        stroke-dasharray="633" stroke-dashoffset="633">
    <animate attributeName="stroke-dashoffset" values="633;0" begin="0.24s" dur="1.9s" fill="freeze" calcMode="spline" keySplines="0.3 0 0.2 1"/>
  </path>
  <path d="M 310 125 L 341 113 L 372 113 L 403 109 L 434 111 L 465 98 L 496 94 L 527 98 L 558 106 L 589 114 L 620 107 L 651 106 L 682 104 L 713 94 L 744 83 L 775 87 L 806 87 L 837 84 L 868 90 L 899 83 L 930 85" stroke="#31415f" stroke-width="1.2" opacity="0.75" stroke-linejoin="round"
        stroke-dasharray="634" stroke-dashoffset="634">
    <animate attributeName="stroke-dashoffset" values="634;0" begin="0.33s" dur="1.9s" fill="freeze" calcMode="spline" keySplines="0.3 0 0.2 1"/>
  </path>
  <path d="M 310 125 L 341 131 L 372 134 L 403 138 L 434 142 L 465 161 L 496 160 L 527 170 L 558 177 L 589 176 L 620 184 L 651 178 L 682 190 L 713 185 L 744 182 L 775 186 L 806 195 L 837 200 L 868 200 L 899 200 L 930 193" stroke="#31415f" stroke-width="1.2" opacity="0.75" stroke-linejoin="round"
        stroke-dasharray="636" stroke-dashoffset="636">
    <animate attributeName="stroke-dashoffset" values="636;0" begin="0.42s" dur="1.9s" fill="freeze" calcMode="spline" keySplines="0.3 0 0.2 1"/>
  </path>
  <path d="M 310 125 L 341 121 L 372 127 L 403 129 L 434 125 L 465 128 L 496 122 L 527 118 L 558 121 L 589 114 L 620 115 L 651 109 L 682 114 L 713 111 L 744 113 L 775 105 L 806 105 L 837 111 L 868 114 L 899 105 L 930 111" stroke="#31415f" stroke-width="1.2" opacity="0.75" stroke-linejoin="round"
        stroke-dasharray="628" stroke-dashoffset="628">
    <animate attributeName="stroke-dashoffset" values="628;0" begin="0.51s" dur="1.9s" fill="freeze" calcMode="spline" keySplines="0.3 0 0.2 1"/>
  </path>
  <path d="M 310 125 L 341 139 L 372 129 L 403 128 L 434 139 L 465 152 L 496 165 L 527 155 L 558 138 L 589 142 L 620 128 L 651 127 L 682 115 L 713 125 L 744 134 L 775 139 L 806 140 L 837 140 L 868 138 L 899 142 L 930 144" stroke="#31415f" stroke-width="1.2" opacity="0.75" stroke-linejoin="round"
        stroke-dasharray="647" stroke-dashoffset="647">
    <animate attributeName="stroke-dashoffset" values="647;0" begin="0.60s" dur="1.9s" fill="freeze" calcMode="spline" keySplines="0.3 0 0.2 1"/>
  </path>
  <path d="M 310 125 L 341 144 L 372 147 L 403 161 L 434 175 L 465 168 L 496 153 L 527 166 L 558 163 L 589 165 L 620 163 L 651 165 L 682 155 L 713 155 L 744 152 L 775 152 L 806 131 L 837 140 L 868 144 L 899 129 L 930 123" stroke="#31415f" stroke-width="1.2" opacity="0.75" stroke-linejoin="round"
        stroke-dasharray="652" stroke-dashoffset="652">
    <animate attributeName="stroke-dashoffset" values="652;0" begin="0.69s" dur="1.9s" fill="freeze" calcMode="spline" keySplines="0.3 0 0.2 1"/>
  </path>
  <path d="M 310 125 L 341 126 L 372 135 L 403 137 L 434 131 L 465 128 L 496 134 L 527 131 L 558 137 L 589 144 L 620 149 L 651 156 L 682 156 L 713 157 L 744 154 L 775 151 L 806 143 L 837 140 L 868 134 L 899 126 L 930 128" stroke="#31415f" stroke-width="1.2" opacity="0.75" stroke-linejoin="round"
        stroke-dasharray="628" stroke-dashoffset="628">
    <animate attributeName="stroke-dashoffset" values="628;0" begin="0.78s" dur="1.9s" fill="freeze" calcMode="spline" keySplines="0.3 0 0.2 1"/>
  </path>

  <!-- VaR95 cutoff -->
  <line x1="310" y1="149" x2="960" y2="149" stroke="#f87171" stroke-width="1.2" stroke-dasharray="5 5" opacity="0">
    <animate attributeName="opacity" values="0;0.8" begin="2.2s" dur="0.5s" fill="freeze"/>
  </line>
  <rect x="890" y="127" width="62" height="18" rx="4" fill="#150b0e" stroke="#f87171" stroke-opacity="0.55" opacity="0">
    <animate attributeName="opacity" values="0;1" begin="2.2s" dur="0.5s" fill="freeze"/>
  </rect>
  <text x="921" y="140" text-anchor="middle" fill="#f87171" font-family="Consolas, Menlo, monospace" font-size="11" opacity="0">VaR 95
    <animate attributeName="opacity" values="0;1" begin="2.2s" dur="0.5s" fill="freeze"/>
  </text>
</svg>