<svg viewBox="0 0 1000 340" fill="none" xmlns="http://www.w3.org/2000/svg">
  <defs>
    <radialGradient id="bg" cx="0.5" cy="0.4" r="0.9">
      <stop offset="0" stop-color="#0b1120"/><stop offset="1" stop-color="#04060b"/>
    </radialGradient>
    <linearGradient id="rt" x1="0" y1="340" x2="1000" y2="0" gradientUnits="userSpaceOnUse">
      <stop offset="0" stop-color="#22d3ee"/><stop offset="1" stop-color="#a78bfa"/>
    </linearGradient>
    <filter id="g" x="-60%" y="-60%" width="220%" height="220%">
      <feGaussianBlur stdDeviation="3.5" result="b"/><feMerge><feMergeNode in="b"/><feMergeNode in="SourceGraphic"/></feMerge>
    </filter>
  </defs>
  <rect width="1000" height="340" rx="16" fill="url(#bg)"/>
  <rect x="0.5" y="0.5" width="999" height="339" rx="16" stroke="#1d2638"/>

  <g stroke="#1a2437" stroke-width="1">
    <line x1="40" y1="40" x2="86" y2="40"/>
    <line x1="86" y1="40" x2="132" y2="40"/>
    <line x1="132" y1="40" x2="178" y2="40"/>
    <line x1="178" y1="40" x2="224" y2="40"/>
    <line x1="224" y1="40" x2="270" y2="40"/>
    <line x1="270" y1="40" x2="316" y2="40"/>
    <line x1="316" y1="40" x2="362" y2="40"/>
    <line x1="362" y1="40" x2="408" y2="40"/>
    <line x1="408" y1="40" x2="454" y2="40"/>
    <line x1="454" y1="40" x2="500" y2="40"/>
    <line x1="500" y1="40" x2="546" y2="40"/>
    <line x1="546" y1="40" x2="592" y2="40"/>
    <line x1="592" y1="40" x2="638" y2="40"/>
    <line x1="638" y1="40" x2="684" y2="40"/>
    <line x1="684" y1="40" x2="730" y2="40"/>
    <line x1="730" y1="40" x2="776" y2="40"/>
    <line x1="776" y1="40" x2="822" y2="40"/>
    <line x1="822" y1="40" x2="868" y2="40"/>
    <line x1="868" y1="40" x2="914" y2="40"/>
    <line x1="914" y1="40" x2="960" y2="40"/>
    <line x1="40" y1="70" x2="86" y2="70"/>
    <line x1="86" y1="70" x2="132" y2="70"/>
    <line x1="132" y1="70" x2="178" y2="70"/>
    <line x1="178" y1="70" x2="224" y2="70"/>
    <line x1="224" y1="70" x2="270" y2="70"/>
    <line x1="270" y1="70" x2="316" y2="70"/>
    <line x1="316" y1="70" x2="362" y2="70"/>
    <line x1="362" y1="70" x2="408" y2="70"/>
    <line x1="408" y1="70" x2="454" y2="70"/>
    <line x1="454" y1="70" x2="500" y2="70"/>
    <line x1="500" y1="70" x2="546" y2="70"/>
    <line x1="546" y1="70" x2="592" y2="70"/>
    <line x1="592" y1="70" x2="638" y2="70"/>
    <line x1="638" y1="70" x2="684" y2="70"/>
    <line x1="684" y1="70" x2="730" y2="70"/>
    <line x1="730" y1="70" x2="776" y2="70"/>
    <line x1="776" y1="70" x2="822" y2="70"/>
    <line x1="822" y1="70" x2="868" y2="70"/>
    <line x1="868" y1="70" x2="914" y2="70"/>
    <line x1="914" y1="70" x2="960" y2="70"/>
    <line x1="40" y1="100" x2="86" y2="100"/>
    <line x1="86" y1="100" x2="132" y2="100"/>
    <line x1="132" y1="100" x2="178" y2="100"/>
    <line x1="178" y1="100" x2="224" y2="100"/>
    <line x1="224" y1="100" x2="270" y2="100"/>
    <line x1="270" y1="100" x2="316" y2="100"/>
    <line x1="316" y1="100" x2="362" y2="100"/>
    <line x1="362" y1="100" x2="408" y2="100"/>
    <line x1="408" y1="100" x2="454" y2="100"/>
    <line x1="454" y1="100" x2="500" y2="100"/>
    <line x1="500" y1="100" x2="546" y2="100"/>
    <line x1="546" y1="100" x2="592" y2="100"/>
    <line x1="592" y1="100" x2="638" y2="100"/>
    <line x1="638" y1="100" x2="684" y2="100"/>
    <line x1="684" y1="100" x2="730" y2="100"/>
    <line x1="730" y1="100" x2="776" y2="100"/>
    <line x1="776" y1="100" x2="822" y2="100"/>
    <line x1="822" y1="100" x2="868" y2="100"/>
    <line x1="868" y1="100" x2="914" y2="100"/>
    <line x1="914" y1="100" x2="960" y2="100"/>
    <line x1="40" y1="250" x2="86" y2="250"/>
    <line x1="86" y1="250" x2="132" y2="250"/>
    <line x1="132" y1="250" x2="178" y2="250"/>
    <line x1="178" y1="250" x2="224" y2="250"/>
    <line x1="224" y1="250" x2="270" y2="250"/>
    <line x1="270" y1="250" x2="316" y2="250"/>
    <line x1="316" y1="250" x2="362" y2="250"/>
    <line x1="362" y1="250" x2="408" y2="250"/>
    <line x1="408" y1="250" x2="454" y2="250"/>
    <line x1="454" y1="250" x2="500" y2="250"/>
    <line x1="500" y1="250" x2="546" y2="250"/>
    <line x1="546" y1="250" x2="592" y2="250"/>
    <line x1="592" y1="250" x2="638" y2="250"/>
    <line x1="638" y1="250" x2="684" y2="250"/>
    <line x1="684" y1="250" x2="730" y2="250"/>
    <line x1="730" y1="250" x2="776" y2="250"/>
    <line x1="776" y1="250" x2="822" y2="250"/>
    <line x1="822" y1="250" x2="868" y2="250"/>
    <line x1="868" y1="250" x2="914" y2="250"/>
    <line x1="914" y1="250" x2="960" y2="250"/>
    <line x1="40" y1="280" x2="86" y2="280"/>
    <line x1="86" y1="280" x2="132" y2="280"/>
    <line x1="132" y1="280" x2="178" y2="280"/>
    <line x1="178" y1="280" x2="224" y2="280"/>
    <line x1="224" y1="280" x2="270" y2="280"/>
    <line x1="270" y1="280" x2="316" y2="280"/>
    <line x1="316" y1="280" x2="362" y2="280"/>
    <line x1="362" y1="280" x2="408" y2="280"/>
    <line x1="408" y1="280" x2="454" y2="280"/>
    <line x1="454" y1="280" x2="500" y2="280"/>
    <line x1="500" y1="280" x2="546" y2="280"/>
    <line x1="546" y1="280" x2="592" y2="280"/>
    <line x1="592" y1="280" x2="638" y2="280"/>
    <line x1="638" y1="280" x2="684" y2="280"/>
    <line x1="684" y1="280" x2="730" y2="280"/>
    <line x1="730" y1="280" x2="776" y2="280"/>
    <line x1="776" y1="280" x2="822" y2="280"/>
    <line x1="822" y1="280" x2="868" y2="280"/>
    <line x1="868" y1="280" x2="914" y2="280"/>
    <line x1="914" y1="280" x2="960" y2="280"/>
    <line x1="40" y1="310" x2="86" y2="310"/>
    <line x1="86" y1="310" x2="132" y2="310"/>
    <line x1="132" y1="310" x2="178" y2="310"/>
    <line x1="178" y1="310" x2="224" y2="310"/>
    <line x1="224" y1="310" x2="270" y2="310"/>
    <line x1="270" y1="310" x2="316" y2="310"/>
    <line x1="316" y1="310" x2="362" y2="310"/>
    <line x1="362" y1="310" x2="408" y2="310"/>
    <line x1="408" y1="310" x2="454" y2="310"/>
    <line x1="454" y1="310" x2="500" y2="310"/>
    <line x1="500" y1="310" x2="546" y2="310"/>
    <line x1="546" y1="310" x2="592" y2="310"/>
    <line x1="592" y1="310" x2="638" y2="310"/>
    <line x1="638" y1="310" x2="684" y2="310"/>
    <line x1="684" y1="310" x2="730" y2="310"/>
    <line x1="730" y1="310" x2="776" y2="310"/>
    <line x1="776" y1="310" x2="822" y2="310"/>
    <line x1="822" y1="310" x2="868" y2="310"/>
    <line x1="868" y1="310" x2="914" y2="310"/>
    <line x1="914" y1="310" x2="960" y2="310"/>
    <line x1="40" y1="40" x2="40" y2="70"/>
    <line x1="40" y1="70" x2="40" y2="100"/>
    <line x1="86" y1="40" x2="86" y2="70"/>
    <line x1="86" y1="70" x2="86" y2="100"/>
    <line x1="132" y1="40" x2="132" y2="70"/>
    <line x1="132" y1="70" x2="132" y2="100"/>
    <line x1="178" y1="40" x2="178" y2="70"/>
    <line x1="178" y1="70" x2="178" y2="100"/>
    <line x1="224" y1="40" x2="224" y2="70"/>
    <line x1="224" y1="70" x2="224" y2="100"/>
    <line x1="270" y1="40" x2="270" y2="70"/>
    <line x1="270" y1="70" x2="270" y2="100"/>
    <line x1="316" y1="40" x2="316" y2="70"/>
    <line x1="316" y1="70" x2="316" y2="100"/>
    <line x1="362" y1="40" x2="362" y2="70"/>
    <line x1="362" y1="70" x2="362" y2="100"/>
    <line x1="408" y1="40" x2="408" y2="70"/>
    <line x1="408" y1="70" x2="408" y2="100"/>
    <line x1="454" y1="40" x2="454" y2="70"/>
    <line x1="454" y1="70" x2="454" y2="100"/>
    <line x1="500" y1="40" x2="500" y2="70"/>
    <line x1="500" y1="70" x2="500" y2="100"/>
    <line x1="546" y1="40" x2="546" y2="70"/>
    <line x1="546" y1="70" x2="546" y2="100"/>
    <line x1="592" y1="40" x2="592" y2="70"/>
    <line x1="592" y1="70" x2="592" y2="100"/>
    <line x1="638" y1="40" x2="638" y2="70"/>
    <line x1="638" y1="70" x2="638" y2="100"/>
    <line x1="684" y1="40" x2="684" y2="70"/>
    <line x1="684" y1="70" x2="684" y2="100"/>
    <line x1="730" y1="40" x2="730" y2="70"/>
    <line x1="730" y1="70" x2="730" y2="100"/>
    <line x1="776" y1="40" x2="776" y2="70"/>
    <line x1="776" y1="70" x2="776" y2="100"/>
    <line x1="822" y1="40" x2="822" y2="70"/>
    <line x1="822" y1="70" x2="822" y2="100"/>
    <line x1="868" y1="40" x2="868" y2="70"/>
    <line x1="868" y1="70" x2="868" y2="100"/>
    <line x1="914" y1="40" x2="914" y2="70"/>
    <line x1="914" y1="70" x2="914" y2="100"/>
    <line x1="960" y1="40" x2="960" y2="70"/>
    <line x1="960" y1="70" x2="960" y2="100"/>
    <line x1="40" y1="250" x2="40" y2="280"/>
    <line x1="40" y1="280" x2="40" y2="310"/>
    <line x1="86" y1="250" x2="86" y2="280"/>
    <line x1="86" y1="280" x2="86" y2="310"/>
    <line x1="132" y1="250" x2="132" y2="280"/>
    <line x1="132" y1="280" x2="132" y2="310"/>
    <line x1="178" y1="250" x2="178" y2="280"/>
    <line x1="178" y1="280" x2="178" y2="310"/>
    <line x1="224" y1="250" x2="224" y2="280"/>
    <line x1="224" y1="280" x2="224" y2="310"/>
    <line x1="270" y1="250" x2="270" y2="280"/>
    <line x1="270" y1="280" x2="270" y2="310"/>
    <line x1="316" y1="250" x2="316" y2="280"/>
    <line x1="316" y1="280" x2="316" y2="310"/>
    <line x1="362" y1="250" x2="362" y2="280"/>
    <line x1="362" y1="280" x2="362" y2="310"/>
    <line x1="408" y1="250" x2="408" y2="280"/>
    <line x1="408" y1="280" x2="408" y2="310"/>
    <line x1="454" y1="250" x2="454" y2="280"/>
    <line x1="454" y1="280" x2="454" y2="310"/>
    <line x1="500" y1="250" x2="500" y2="280"/>
    <line x1="500" y1="280" x2="500" y2="310"/>
    <line x1="546" y1="250" x2="546" y2="280"/>
    <line x1="546" y1="280" x2="546" y2="310"/>
    <line x1="592" y1="250" x2="592" y2="280"/>
    <line x1="592" y1="280" x2="592" y2="310"/>
    <line x1="638" y1="250" x2="638" y2="280"/>
    <line x1="638" y1="280" x2="638" y2="310"/>
    <line x1="684" y1="250" x2="684" y2="280"/>
    <line x1="684" y1="280" x2="684" y2="310"/>
    <line x1="730" y1="250" x2="730" y2="280"/>
    <line x1="730" y1="280" x2="730" y2="310"/>
    <line x1="776" y1="250" x2="776" y2="280"/>
    <line x1="776" y1="280" x2="776" y2="310"/>
    <line x1="822" y1="250" x2="822" y2="280"/>
    <line x1="822" y1="280" x2="822" y2="310"/>
    <line x1="868" y1="250" x2="868" y2="280"/>
    <line x1="868" y1="280" x2="868" y2="310"/>
    <line x1="914" y1="250" x2="914" y2="280"/>
    <line x1="914" y1="280" x2="914" y2="310"/>
    <line x1="960" y1="250" x2="960" y2="280"/>
    <line x1="960" y1="280" x2="960" y2="310"/>
    <line x1="40" y1="100" x2="40" y2="250"/>
    <line x1="960" y1="100" x2="960" y2="250"/>
  </g>
  <g fill="#26324c">
    <circle cx="40" cy="40" r="1.8"/>
    <circle cx="86" cy="40" r="1.8"/>
    <circle cx="132" cy="40" r="1.8"/>
    <circle cx="178" cy="40" r="1.8"/>
    <circle cx="224" cy="40" r="1.8"/>
    <circle cx="270" cy="40" r="1.8"/>
    <circle cx="316" cy="40" r="1.8"/>
    <circle cx="362" cy="40" r="1.8"/>
    <circle cx="408" cy="40" r="1.8"/>
    <circle cx="454" cy="40" r="1.8"/>
    <circle cx="500" cy="40" r="1.8"/>
    <circle cx="546" cy="40" r="1.8"/>
    <circle cx="592" cy="40" r="1.8"/>
    <circle cx="638" cy="40" r="1.8"/>
    <circle cx="684" cy="40" r="1.8"/>
    <circle cx="730" cy="40" r="1.8"/>
    <circle cx="776" cy="40" r="1.8"/>
    <circle cx="822" cy="40" r="1.8"/>
    <circle cx="868" cy="40" r="1.8"/>
    <circle cx="914" cy="40" r="1.8"/>
    <circle cx="960" cy="40" r="1.8"/>
    <circle cx="40" cy="70" r="1.8"/>
    <circle cx="86" cy="70" r="1.8"/>
    <circle cx="132" cy="70" r="1.8"/>
    <circle cx="178" cy="70" r="1.8"/>
    <circle cx="224" cy="70" r="1.8"/>
    <circle cx="270" cy="70" r="1.8"/>
    <circle cx="316" cy="70" r="1.8"/>
    <circle cx="362" cy="70" r="1.8"/>
    <circle cx="408" cy="70" r="1.8"/>
    <circle cx="454" cy="70" r="1.8"/>
    <circle cx="500" cy="70" r="1.8"/>
    <circle cx="546" cy="70" r="1.8"/>
    <circle cx="592" cy="70" r="1.8"/>
    <circle cx="638" cy="70" r="1.8"/>
    <circle cx="684" cy="70" r="1.8"/>
    <circle cx="730" cy="70" r="1.8"/>
    <circle cx="776" cy="70" r="1.8"/>
    <circle cx="822" cy="70" r="1.8"/>
    <circle cx="868" cy="70" r="1.8"/>
    <circle cx="914" cy="70" r="1.8"/>
    <circle cx="960" cy="70" r="1.8"/>
    <circle cx="40" cy="100" r="1.8"/>
    <circle cx="86" cy="100" r="1.8"/>
    <circle cx="132" cy="100" r="1.8"/>
    <circle cx="178" cy="100" r="1.8"/>
    <circle cx="224" cy="100" r="1.8"/>
    <circle cx="270" cy="100" r="1.8"/>
    <circle cx="316" cy="100" r="1.8"/>
    <circle cx="362" cy="100" r="1.8"/>
    <circle cx="408" cy="100" r="1.8"/>
    <circle cx="454" cy="100" r="1.8"/>
    <circle cx="500" cy="100" r="1.8"/>
    <circle cx="546" cy="100" r="1.8"/>
    <circle cx="592" cy="100" r="1.8"/>
    <circle cx="638" cy="100" r="1.8"/>
    <circle cx="684" cy="100" r="1.8"/>
    <circle cx="730" cy="100" r="1.8"/>
    <circle cx="776" cy="100" r="1.8"/>
    <circle cx="822" cy="100" r="1.8"/>
    <circle cx="868" cy="100" r="1.8"/>
    <circle cx="914" cy="100" r="1.8"/>
    <circle cx="960" cy="100" r="1.8"/>
    <circle cx="40" cy="250" r="1.8"/>
    <circle cx="86" cy="250" r="1.8"/>
    <circle cx="132" cy="250" r="1.8"/>
    <circle cx="178" cy="250" r="1.8"/>
    <circle cx="224" cy="250" r="1.8"/>
    <circle cx="270" cy="250" r="1.8"/>
    <circle cx="316" cy="250" r="1.8"/>
    <circle cx="362" cy="250" r="1.8"/>
    <circle cx="408" cy="250" r="1.8"/>
    <circle cx="454" cy="250" r="1.8"/>
    <circle cx="500" cy="250" r="1.8"/>
    <circle cx="546" cy="250" r="1.8"/>
    <circle cx="592" cy="250" r="1.8"/>
    <circle cx="638" cy="250" r="1.8"/>
    <circle cx="684" cy="250" r="1.8"/>
    <circle cx="730" cy="250" r="1.8"/>
    <circle cx="776" cy="250" r="1.8"/>
    <circle cx="822" cy="250" r="1.8"/>
    <circle cx="868" cy="250" r="1.8"/>
    <circle cx="914" cy="250" r="1.8"/>
    <circle cx="960" cy="250" r="1.8"/>
    <circle cx="40" cy="280" r="1.8"/>
    <circle cx="86" cy="280" r="1.8"/>
    <circle cx="132" cy="280" r="1.8"/>
    <circle cx="178" cy="280" r="1.8"/>
    <circle cx="224" cy="280" r="1.8"/>
    <circle cx="270" cy="280" r="1.8"/>
    <circle cx="316" cy="280" r="1.8"/>
    <circle cx="362" cy="280" r="1.8"/>
    <circle cx="408" cy="280" r="1.8"/>
    <circle cx="454" cy="280" r="1.8"/>
    <circle cx="500" cy="280" r="1.8"/>
    <circle cx="546" cy="280" r="1.8"/>
    <circle cx="592" cy="280" r="1.8"/>
    <circle cx="638" cy="280" r="1.8"/>
    <circle cx="684" cy="280" r="1.8"/>
    <circle cx="730" cy="280" r="1.8"/>
    <circle cx="776" cy="280" r="1.8"/>
    <circle cx="822" cy="280" r="1.8"/>
    <circle cx="868" cy="280" r="1.8"/>
    <circle cx="914" cy="280" r="1.8"/>
    <circle cx="960" cy="280" r="1.8"/>
    <circle cx="40" cy="310" r="1.8"/>
    <circle cx="86" cy="310" r="1.8"/>
    <circle cx="132" cy="310" r="1.8"/>
    <circle cx="178" cy="310" r="1.8"/>
    <circle cx="224" cy="310" r="1.8"/>
    <circle cx="270" cy="310" r="1.8"/>
    <circle cx="316" cy="310" r="1.8"/>
    <circle cx="362" cy="310" r="1.8"/>
    <circle cx="408" cy="310" r="1.8"/>
    <circle cx="454" cy="310" r="1.8"/>
    <circle cx="500" cy="310" r="1.8"/>
    <circle cx="546" cy="310" r="1.8"/>
    <circle cx="592" cy="310" r="1.8"/>
    <circle cx="638" cy="310" r="1.8"/>
    <circle cx="684" cy="310" r="1.8"/>
    <circle cx="730" cy="310" r="1.8"/>
    <circle cx="776" cy="310" r="1.8"/>
    <circle cx="822" cy="310" r="1.8"/>
    <circle cx="868" cy="310" r="1.8"/>
    <circle cx="914" cy="310" r="1.8"/>
    <circle cx="960" cy="310" r="1.8"/>
  </g>

  <!-- search frontier -->
  <g filter="url(#g)">
    <circle cx="40" cy="40" r="2.4" fill="#22d3ee" opacity="0">
      <animate attributeName="opacity" values="0;0;0.9;0.9;0;0" keyTimes="0;0.095;0.125;0.62;0.72;1" dur="9s" repeatCount="indefinite"/>
    </circle>
    <circle cx="86" cy="40" r="2.4" fill="#22d3ee" opacity="0">
      <animate attributeName="opacity" values="0;0;0.9;0.9;0;0" keyTimes="0;0.112;0.142;0.62;0.72;1" dur="9s" repeatCount="indefinite"/>
    </circle>
    <circle cx="132" cy="40" r="2.4" fill="#22d3ee" opacity="0">
      <animate attributeName="opacity" values="0;0;0.9;0.9;0;0" keyTimes="0;0.128;0.158;0.62;0.72;1" dur="9s" repeatCount="indefinite"/>
    </circle>
    <circle cx="178" cy="40" r="2.4" fill="#22d3ee" opacity="0">
      <animate attributeName="opacity" values="0;0;0.9;0.9;0;0" keyTimes="0;0.144;0.174;0.62;0.72;1" dur="9s" repeatCount="indefinite"/>
    </circle>
    <circle cx="224" cy="40" r="2.4" fill="#22d3ee" opacity="0">
      <animate attributeName="opacity" values="0;0;0.9;0.9;0;0" keyTimes="0;0.160;0.190;0.62;0.72;1" dur="9s" repeatCount="indefinite"/>
    </circle>
    <circle cx="270" cy="40" r="2.4" fill="#22d3ee" opacity="0">
      <animate attributeName="opacity" values="0;0;0.9;0.9;0;0" keyTimes="0;0.176;0.206;0.62;0.72;1" dur="9s" repeatCount="indefinite"/>
    </circle>
    <circle cx="316" cy="40" r="2.4" fill="#22d3ee" opacity="0">
      <animate attributeName="opacity" values="0;0;0.9;0.9;0;0" keyTimes="0;0.193;0.223;0.62;0.72;1" dur="9s" repeatCount="indefinite"/>
    </circle>
    <circle cx="362" cy="40" r="2.4" fill="#22d3ee" opacity="0">
      <animate attributeName="opacity" values="0;0;0.9;0.9;0;0" keyTimes="0;0.209;0.239;0.62;0.72;1" dur="9s" repeatCount="indefinite"/>
    </circle>
    <circle cx="408" cy="40" r="2.4" fill="#22d3ee" opacity="0">
      <animate attributeName="opacity" values="0;0;0.9;0.9;0;0" keyTimes="0;0.225;0.255;0.62;0.72;1" dur="9s" repeatCount="indefinite"/>
    </circle>
    <circle cx="454" cy="40" r="2.4" fill="#22d3ee" opacity="0">
      <animate attributeName="opacity" values="0;0;0.9;0.9;0;0" keyTimes="0;0.241;0.271;0.62;0.72;1" dur="9s" repeatCount="indefinite"/>
    </circle>
    <circle cx="500" cy="40" r="2.4" fill="#22d3ee" opacity="0">
      <animate attributeName="opacity" values="0;0;0.9;0.9;0;0" keyTimes="0;0.258;0.288;0.62;0.72;1" dur="9s" repeatCount="indefinite"/>
    </circle>
    <circle cx="546" cy="40" r="2.4" fill="#22d3ee" opacity="0">
      <animate attributeName="opacity" values="0;0;0.9;0.9;0;0" keyTimes="0;0.274;0.304;0.62;0.72;1" dur="9s" repeatCount="indefinite"/>
    </circle>
    <circle cx="592" cy="40" r="2.4" fill="#22d3ee" opacity="0">
      <animate attributeName="opacity" values="0;0;0.9;0.9;0;0" keyTimes="0;0.290;0.320;0.62;0.72;1" dur="9s" repeatCount="indefinite"/>
    </circle>
    <circle cx="638" cy="40" r="2.4" fill="#22d3ee" opacity="0">
      <animate attributeName="opacity" values="0;0;0.9;0.9;0;0" keyTimes="0;0.306;0.336;0.62;0.72;1" dur="9s" repeatCount="indefinite"/>
    </circle>
    <circle cx="684" cy="40" r="2.4" fill="#22d3ee" opacity="0">
      <animate attributeName="opacity" values="0;0;0.9;0.9;0;0" keyTimes="0;0.323;0.353;0.62;0.72;1" dur="9s" repeatCount="indefinite"/>
    </circle>
    <circle cx="730" cy="40" r="2.4" fill="#22d3ee" opacity="0">
      <animate attributeName="opacity" values="0;0;0.9;0.9;0;0" keyTimes="0;0.339;0.369;0.62;0.72;1" dur="9s" repeatCount="indefinite"/>
    </circle>
    <circle cx="776" cy="40" r="2.4" fill="#22d3ee" opacity="0">
      <animate attributeName="opacity" values="0;0;0.9;0.9;0;0" keyTimes="0;0.355;0.385;0.62;0.72;1" dur="9s" repeatCount="indefinite"/>
    </circle>
    <circle cx="822" cy="40" r="2.4" fill="#22d3ee" opacity="0">
      <animate attributeName="opacity" values="0;0;0.9;0.9;0;0" keyTimes="0;0.371;0.401;0.62;0.72;1" dur="9s" repeatCount="indefinite"/>
    </circle>
    <circle cx="868" cy="40" r="2.4" fill="#22d3ee" opacity="0">
      <animate attributeName="opacity" values="0;0;0.9;0.9;0;0" keyTimes="0;0.388;0.418;0.62;0.72;1" dur="9s" repeatCount="indefinite"/>
    </circle>
    <circle cx="914" cy="40" r="2.4" fill="#22d3ee" opacity="0">
      <animate attributeName="opacity" values="0;0;0.9;0.9;0;0" keyTimes="0;0.404;0.434;0.62;0.72;1" dur="9s" repeatCount="indefinite"/>
    </circle>
    <circle cx="960" cy="40" r="2.4" fill="#22d3ee" opacity="0">
      <animate attributeName="opacity" values="0;0;0.9;0.9;0;0" keyTimes="0;0.420;0.450;0.62;0.72;1" dur="9s" repeatCount="indefinite"/>
    </circle>
    <circle cx="40" cy="70" r="2.4" fill="#22d3ee" opacity="0">
      <animate attributeName="opacity" values="0;0;0.9;0.9;0;0" keyTimes="0;0.085;0.115;0.62;0.72;1" dur="9s" repeatCount="indefinite"/>
    </circle>
    <circle cx="86" cy="70" r="2.4" fill="#22d3ee" opacity="0">
      <animate attributeName="opacity" values="0;0;0.9;0.9;0;0" keyTimes="0;0.101;0.131;0.62;0.72;1" dur="9s" repeatCount="indefinite"/>
    </circle>
    <circle cx="132" cy="70" r="2.4" fill="#22d3ee" opacity="0">
      <animate attributeName="opacity" values="0;0;0.9;0.9;0;0" keyTimes="0;0.117;0.147;0.62;0.72;1" dur="9s" repeatCount="indefinite"/>
    </circle>
    <circle cx="178" cy="70" r="2.4" fill="#22d3ee" opacity="0">
      <animate attributeName="opacity" values="0;0;0.9;0.9;0;0" keyTimes="0;0.133;0.163;0.62;0.72;1" dur="9s" repeatCount="indefinite"/>
    </circle>
    <circle cx="224" cy="70" r="2.4" fill="#22d3ee" opacity="0">
      <animate attributeName="opacity" values="0;0;0.9;0.9;0;0" keyTimes="0;0.150;0.180;0.62;0.72;1" dur="9s" repeatCount="indefinite"/>
    </circle>
    <circle cx="270" cy="70" r="2.4" fill="#22d3ee" opacity="0">
      <animate attributeName="opacity" values="0;0;0.9;0.9;0;0" keyTimes="0;0.166;0.196;0.62;0.72;1" dur="9s" repeatCount="indefinite"/>
    </circle>
    <circle cx="316" cy="70" r="2.4" fill="#22d3ee" opacity="0">
      <animate attributeName="opacity" values="0;0;0.9;0.9;0;0" keyTimes="0;0.182;0.212;0.62;0.72;1" dur="9s" repeatCount="indefinite"/>
    </circle>
    <circle cx="362" cy="70" r="2.4" fill="#22d3ee" opacity="0">
      <animate attributeName="opacity" values="0;0;0.9;0.9;0;0" keyTimes="0;0.198;0.228;0.62;0.72;1" dur="9s" repeatCount="indefinite"/>
    </circle>
    <circle cx="408" cy="70" r="2.4" fill="#22d3ee" opacity="0">
      <animate attributeName="opacity" values="0;0;0.9;0.9;0;0" keyTimes="0;0.215;0.245;0.62;0.72;1" dur="9s" repeatCount="indefinite"/>
    </circle>
    <circle cx="454" cy="70" r="2.4" fill="#22d3ee" opacity="0">
      <animate attributeName="opacity" values="0;0;0.9;0.9;0;0" keyTimes="0;0.231;0.261;0.62;0.72;1" dur="9s" repeatCount="indefinite"/>
    </circle>
    <circle cx="500" cy="70" r="2.4" fill="#22d3ee" opacity="0">
      <animate attributeName="opacity" values="0;0;0.9;0.9;0;0" keyTimes="0;0.247;0.277;0.62;0.72;1" dur="9s" repeatCount="indefinite"/>
    </circle>
    <circle cx="546" cy="70" r="2.4" fill="#22d3ee" opacity="0">
      <animate attributeName="opacity" values="0;0;0.9;0.9;0;0" keyTimes="0;0.263;0.293;0.62;0.72;1" dur="9s" repeatCount="indefinite"/>
    </circle>
    <circle cx="592" cy="70" r="2.4" fill="#22d3ee" opacity="0">
      <animate attributeName="opacity" values="0;0;0.9;0.9;0;0" keyTimes="0;0.280;0.310;0.62;0.72;1" dur="9s" repeatCount="indefinite"/>
    </circle>
    <circle cx="638" cy="70" r="2.4" fill="#22d3ee" opacity="0">
      <animate attributeName="opacity" values="0;0;0.9;0.9;0;0" keyTimes="0;0.296;0.326;0.62;0.72;1" dur="9s" repeatCount="indefinite"/>
    </circle>
    <circle cx="684" cy="70" r="2.4" fill="#22d3ee" opacity="0">
      <animate attributeName="opacity" values="0;0;0.9;0.9;0;0" keyTimes="0;0.312;0.342;0.62;0.72;1" dur="9s" repeatCount="indefinite"/>
    </circle>
    <circle cx="730" cy="70" r="2.4" fill="#22d3ee" opacity="0">
      <animate attributeName="opacity" values="0;0;0.9;0.9;0;0" keyTimes="0;0.328;0.358;0.62;0.72;1" dur="9s" repeatCount="indefinite"/>
    </circle>
    <circle cx="776" cy="70" r="2.4" fill="#22d3ee" opacity="0">
      <animate attributeName="opacity" values="0;0;0.9;0.9;0;0" keyTimes="0;0.344;0.374;0.62;0.72;1" dur="9s" repeatCount="indefinite"/>
    </circle>
    <circle cx="822" cy="70" r="2.4" fill="#22d3ee" opacity="0">
      <animate attributeName="opacity" values="0;0;0.9;0.9;0;0" keyTimes="0;0.361;0.391;0.62;0.72;1" dur="9s" repeatCount="indefinite"/>
    </circle>
    <circle cx="868" cy="70" r="2.4" fill="#22d3ee" opacity="0">
      <animate attributeName="opacity" values="0;0;0.9;0.9;0;0" keyTimes="0;0.377;0.407;0.62;0.72;1" dur="9s" repeatCount="indefinite"/>
    </circle>
    <circle cx="914" cy="70" r="2.4" fill="#22d3ee" opacity="0">
      <animate attributeName="opacity" values="0;0;0.9;0.9;0;0" keyTimes="0;0.393;0.423;0.62;0.72;1" dur="9s" repeatCount="indefinite"/>
    </circle>
    <circle cx="960" cy="70" r="2.4" fill="#22d3ee" opacity="0">
      <animate attributeName="opacity" values="0;0;0.9;0.9;0;0" keyTimes="0;0.409;0.439;0.62;0.72;1" dur="9s" repeatCount="indefinite"/>
    </circle>
    <circle cx="40" cy="100" r="2.4" fill="#22d3ee" opacity="0">
      <animate attributeName="opacity" values="0;0;0.9;0.9;0;0" keyTimes="0;0.074;0.104;0.62;0.72;1" dur="9s" repeatCount="indefinite"/>
    </circle>
    <circle cx="86" cy="100" r="2.4" fill="#22d3ee" opacity="0">
      <animate attributeName="opacity" values="0;0;0.9;0.9;0;0" keyTimes="0;0.090;0.120;0.62;0.72;1" dur="9s" repeatCount="indefinite"/>
    </circle>
    <circle cx="132" cy="100" r="2.4" fill="#22d3ee" opacity="0">
      <animate attributeName="opacity" values="0;0;0.9;0.9;0;0" keyTimes="0;0.107;0.137;0.62;0.72;1" dur="9s" repeatCount="indefinite"/>
    </circle>
    <circle cx="178" cy="100" r="2.4" fill="#22d3ee" opacity="0">
      <animate attributeName="opacity" values="0;0;0.9;0.9;0;0" keyTimes="0;0.123;0.153;0.62;0.72;1" dur="9s" repeatCount="indefinite"/>
    </circle>
    <circle cx="224" cy="100" r="2.4" fill="#22d3ee" opacity="0">
      <animate attributeName="opacity" values="0;0;0.9;0.9;0;0" keyTimes="0;0.139;0.169;0.62;0.72;1" dur="9s" repeatCount="indefinite"/>
    </circle>
    <circle cx="270" cy="100" r="2.4" fill="#22d3ee" opacity="0">
      <animate attributeName="opacity" values="0;0;0.9;0.9;0;0" keyTimes="0;0.155;0.185;0.62;0.72;1" dur="9s" repeatCount="indefinite"/>
    </circle>
    <circle cx="316" cy="100" r="2.4" fill="#22d3ee" opacity="0">
      <animate attributeName="opacity" values="0;0;0.9;0.9;0;0" keyTimes="0;0.172;0.202;0.62;0.72;1" dur="9s" repeatCount="indefinite"/>
    </circle>
    <circle cx="362" cy="100" r="2.4" fill="#22d3ee" opacity="0">
      <animate attributeName="opacity" values="0;0;0.9;0.9;0;0" keyTimes="0;0.188;0.218;0.62;0.72;1" dur="9s" repeatCount="indefinite"/>
    </circle>
    <circle cx="408" cy="100" r="2.4" fill="#22d3ee" opacity="0">
      <animate attributeName="opacity" values="0;0;0.9;0.9;0;0" keyTimes="0;0.204;0.234;0.62;0.72;1" dur="9s" repeatCount="indefinite"/>
    </circle>
    <circle cx="454" cy="100" r="2.4" fill="#22d3ee" opacity="0">
      <animate attributeName="opacity" values="0;0;0.9;0.9;0;0" keyTimes="0;0.220;0.250;0.62;0.72;1" dur="9s" repeatCount="indefinite"/>
    </circle>
    <circle cx="500" cy="100" r="2.4" fill="#22d3ee" opacity="0">
      <animate attributeName="opacity" values="0;0;0.9;0.9;0;0" keyTimes="0;0.236;0.266;0.62;0.72;1" dur="9s" repeatCount="indefinite"/>
    </circle>
    <circle cx="546" cy="100" r="2.4" fill="#22d3ee" opacity="0">
      <animate attributeName="opacity" values="0;0;0.9;0.9;0;0" keyTimes="0;0.253;0.283;0.62;0.72;1" dur="9s" repeatCount="indefinite"/>
    </circle>
    <circle cx="592" cy="100" r="2.4" fill="#22d3ee" opacity="0">
      <animate attributeName="opacity" values="0;0;0.9;0.9;0;0" keyTimes="0;0.269;0.299;0.62;0.72;1" dur="9s" repeatCount="indefinite"/>
    </circle>
    <circle cx="638" cy="100" r="2.4" fill="#22d3ee" opacity="0">
      <animate attributeName="opacity" values="0;0;0.9;0.9;0;0" keyTimes="0;0.285;0.315;0.62;0.72;1" dur="9s" repeatCount="indefinite"/>
    </circle>
    <circle cx="684" cy="100" r="2.4" fill="#22d3ee" opacity="0">
      <animate attributeName="opacity" values="0;0;0.9;0.9;0;0" keyTimes="0;0.301;0.331;0.62;0.72;1" dur="9s" repeatCount="indefinite"/>
    </circle>
    <circle cx="730" cy="100" r="2.4" fill="#22d3ee" opacity="0">
      <animate attributeName="opacity" values="0;0;0.9;0.9;0;0" keyTimes="0;0.318;0.348;0.62;0.72;1" dur="9s" repeatCount="indefinite"/>
    </circle>
    <circle cx="776" cy="100" r="2.4" fill="#22d3ee" opacity="0">
      <animate attributeName="opacity" values="0;0;0.9;0.9;0;0" keyTimes="0;0.334;0.364;0.62;0.72;1" dur="9s" repeatCount="indefinite"/>
    </circle>
    <circle cx="822" cy="100" r="2.4" fill="#22d3ee" opacity="0">
      <animate attributeName="opacity" values="0;0;0.9;0.9;0;0" keyTimes="0;0.350;0.380;0.62;0.72;1" dur="9s" repeatCount="indefinite"/>
    </circle>
    <circle cx="868" cy="100" r="2.4" fill="#22d3ee" opacity="0">
      <animate attributeName="opacity" values="0;0;0.9;0.9;0;0" keyTimes="0;0.366;0.396;0.62;0.72;1" dur="9s" repeatCount="indefinite"/>
    </circle>
    <circle cx="914" cy="100" r="2.4" fill="#22d3ee" opacity="0">
      <animate attributeName="opacity" values="0;0;0.9;0.9;0;0" keyTimes="0;0.383;0.413;0.62;0.72;1" dur="9s" repeatCount="indefinite"/>
    </circle>
    <circle cx="960" cy="100" r="2.4" fill="#22d3ee" opacity="0">
      <animate attributeName="opacity" values="0;0;0.9;0.9;0;0" keyTimes="0;0.399;0.429;0.62;0.72;1" dur="9s" repeatCount="indefinite"/>
    </circle>
    <circle cx="40" cy="250" r="2.4" fill="#22d3ee" opacity="0">
      <animate attributeName="opacity" values="0;0;0.9;0.9;0;0" keyTimes="0;0.021;0.051;0.62;0.72;1" dur="9s" repeatCount="indefinite"/>
    </circle>
    <circle cx="86" cy="250" r="2.4" fill="#22d3ee" opacity="0">
      <animate attributeName="opacity" values="0;0;0.9;0.9;0;0" keyTimes="0;0.037;0.067;0.62;0.72;1" dur="9s" repeatCount="indefinite"/>
    </circle>
    <circle cx="132" cy="250" r="2.4" fill="#22d3ee" opacity="0">
      <animate attributeName="opacity" values="0;0;0.9;0.9;0;0" keyTimes="0;0.054;0.084;0.62;0.72;1" dur="9s" repeatCount="indefinite"/>
    </circle>
    <circle cx="178" cy="250" r="2.4" fill="#22d3ee" opacity="0">
      <animate attributeName="opacity" values="0;0;0.9;0.9;0;0" keyTimes="0;0.070;0.100;0.62;0.72;1" dur="9s" repeatCount="indefinite"/>
    </circle>
    <circle cx="224" cy="250" r="2.4" fill="#22d3ee" opacity="0">
      <animate attributeName="opacity" values="0;0;0.9;0.9;0;0" keyTimes="0;0.086;0.116;0.62;0.72;1" dur="9s" repeatCount="indefinite"/>
    </circle>
    <circle cx="270" cy="250" r="2.4" fill="#22d3ee" opacity="0">
      <animate attributeName="opacity" values="0;0;0.9;0.9;0;0" keyTimes="0;0.102;0.132;0.62;0.72;1" dur="9s" repeatCount="indefinite"/>
    </circle>
    <circle cx="316" cy="250" r="2.4" fill="#22d3ee" opacity="0">
      <animate attributeName="opacity" values="0;0;0.9;0.9;0;0" keyTimes="0;0.119;0.149;0.62;0.72;1" dur="9s" repeatCount="indefinite"/>
    </circle>
    <circle cx="362" cy="250" r="2.4" fill="#22d3ee" opacity="0">
      <animate attributeName="opacity" values="0;0;0.9;0.9;0;0" keyTimes="0;0.135;0.165;0.62;0.72;1" dur="9s" repeatCount="indefinite"/>
    </circle>
    <circle cx="408" cy="250" r="2.4" fill="#22d3ee" opacity="0">
      <animate attributeName="opacity" values="0;0;0.9;0.9;0;0" keyTimes="0;0.151;0.181;0.62;0.72;1" dur="9s" repeatCount="indefinite"/>
    </circle>
    <circle cx="454" cy="250" r="2.4" fill="#22d3ee" opacity="0">
      <animate attributeName="opacity" values="0;0;0.9;0.9;0;0" keyTimes="0;0.167;0.197;0.62;0.72;1" dur="9s" repeatCount="indefinite"/>
    </circle>
    <circle cx="500" cy="250" r="2.4" fill="#22d3ee" opacity="0">
      <animate attributeName="opacity" values="0;0;0.9;0.9;0;0" keyTimes="0;0.184;0.214;0.62;0.72;1" dur="9s" repeatCount="indefinite"/>
    </circle>
    <circle cx="546" cy="250" r="2.4" fill="#22d3ee" opacity="0">
      <animate attributeName="opacity" values="0;0;0.9;0.9;0;0" keyTimes="0;0.200;0.230;0.62;0.72;1" dur="9s" repeatCount="indefinite"/>
    </circle>
    <circle cx="592" cy="250" r="2.4" fill="#22d3ee" opacity="0">
      <animate attributeName="opacity" values="0;0;0.9;0.9;0;0" keyTimes="0;0.216;0.246;0.62;0.72;1" dur="9s" repeatCount="indefinite"/>
    </circle>
    <circle cx="638" cy="250" r="2.4" fill="#22d3ee" opacity="0">
      <animate attributeName="opacity" values="0;0;0.9;0.9;0;0" keyTimes="0;0.232;0.262;0.62;0.72;1" dur="9s" repeatCount="indefinite"/>
    </circle>
    <circle cx="684" cy="250" r="2.4" fill="#22d3ee" opacity="0">
      <animate attributeName="opacity" values="0;0;0.9;0.9;0;0" keyTimes="0;0.248;0.278;0.62;0.72;1" dur="9s" repeatCount="indefinite"/>
    </circle>
    <circle cx="730" cy="250" r="2.4" fill="#22d3ee" opacity="0">
      <animate attributeName="opacity" values="0;0;0.9;0.9;0;0" keyTimes="0;0.265;0.295;0.62;0.72;1" dur="9s" repeatCount="indefinite"/>
    </circle>
    <circle cx="776" cy="250" r="2.4" fill="#22d3ee" opacity="0">
      <animate attributeName="opacity" values="0;0;0.9;0.9;0;0" keyTimes="0;0.281;0.311;0.62;0.72;1" dur="9s" repeatCount="indefinite"/>
    </circle>
    <circle cx="822" cy="250" r="2.4" fill="#22d3ee" opacity="0">
      <animate attributeName="opacity" values="0;0;0.9;0.9;0;0" keyTimes="0;0.297;0.327;0.62;0.72;1" dur="9s" repeatCount="indefinite"/>
    </circle>
    <circle cx="868" cy="250" r="2.4" fill="#22d3ee" opacity="0">
      <animate attributeName="opacity" values="0;0;0.9;0.9;0;0" keyTimes="0;0.313;0.343;0.62;0.72;1" dur="9s" repeatCount="indefinite"/>
    </circle>
    <circle cx="914" cy="250" r="2.4" fill="#22d3ee" opacity="0">
      <animate attributeName="opacity" values="0;0;0.9;0.9;0;0" keyTimes="0;0.330;0.360;0.62;0.72;1" dur="9s" repeatCount="indefinite"/>
    </circle>
    <circle cx="960" cy="250" r="2.4" fill="#22d3ee" opacity="0">
      <animate attributeName="opacity" values="0;0;0.9;0.9;0;0" keyTimes="0;0.346;0.376;0.62;0.72;1" dur="9s" repeatCount="indefinite"/>
    </circle>
    <circle cx="40" cy="280" r="2.4" fill="#22d3ee" opacity="0">
      <animate attributeName="opacity" values="0;0;0.9;0.9;0;0" keyTimes="0;0.011;0.041;0.62;0.72;1" dur="9s" repeatCount="indefinite"/>
    </circle>
    <circle cx="86" cy="280" r="2.4" fill="#22d3ee" opacity="0">
      <animate attributeName="opacity" values="0;0;0.9;0.9;0;0" keyTimes="0;0.027;0.057;0.62;0.72;1" dur="9s" repeatCount="indefinite"/>
    </circle>
    <circle cx="132" cy="280" r="2.4" fill="#22d3ee" opacity="0">
      <animate attributeName="opacity" values="0;0;0.9;0.9;0;0" keyTimes="0;0.043;0.073;0.62;0.72;1" dur="9s" repeatCount="indefinite"/>
    </circle>
    <circle cx="178" cy="280" r="2.4" fill="#22d3ee" opacity="0">
      <animate attributeName="opacity" values="0;0;0.9;0.9;0;0" keyTimes="0;0.059;0.089;0.62;0.72;1" dur="9s" repeatCount="indefinite"/>
    </circle>
    <circle cx="224" cy="280" r="2.4" fill="#22d3ee" opacity="0">
      <animate attributeName="opacity" values="0;0;0.9;0.9;0;0" keyTimes="0;0.076;0.106;0.62;0.72;1" dur="9s" repeatCount="indefinite"/>
    </circle>
    <circle cx="270" cy="280" r="2.4" fill="#22d3ee" opacity="0">
      <animate attributeName="opacity" values="0;0;0.9;0.9;0;0" keyTimes="0;0.092;0.122;0.62;0.72;1" dur="9s" repeatCount="indefinite"/>
    </circle>
    <circle cx="316" cy="280" r="2.4" fill="#22d3ee" opacity="0">
      <animate attributeName="opacity" values="0;0;0.9;0.9;0;0" keyTimes="0;0.108;0.138;0.62;0.72;1" dur="9s" repeatCount="indefinite"/>
    </circle>
    <circle cx="362" cy="280" r="2.4" fill="#22d3ee" opacity="0">
      <animate attributeName="opacity" values="0;0;0.9;0.9;0;0" keyTimes="0;0.124;0.154;0.62;0.72;1" dur="9s" repeatCount="indefinite"/>
    </circle>
    <circle cx="408" cy="280" r="2.4" fill="#22d3ee" opacity="0">
      <animate attributeName="opacity" values="0;0;0.9;0.9;0;0" keyTimes="0;0.140;0.170;0.62;0.72;1" dur="9s" repeatCount="indefinite"/>
    </circle>
    <circle cx="454" cy="280" r="2.4" fill="#22d3ee" opacity="0">
      <animate attributeName="opacity" values="0;0;0.9;0.9;0;0" keyTimes="0;0.157;0.187;0.62;0.72;1" dur="9s" repeatCount="indefinite"/>
    </circle>
    <circle cx="500" cy="280" r="2.4" fill="#22d3ee" opacity="0">
      <animate attributeName="opacity" values="0;0;0.9;0.9;0;0" keyTimes="0;0.173;0.203;0.62;0.72;1" dur="9s" repeatCount="indefinite"/>
    </circle>
    <circle cx="546" cy="280" r="2.4" fill="#22d3ee" opacity="0">
      <animate attributeName="opacity" values="0;0;0.9;0.9;0;0" keyTimes="0;0.189;0.219;0.62;0.72;1" dur="9s" repeatCount="indefinite"/>
    </circle>
    <circle cx="592" cy="280" r="2.4" fill="#22d3ee" opacity="0">
      <animate attributeName="opacity" values="0;0;0.9;0.9;0;0" keyTimes="0;0.205;0.235;0.62;0.72;1" dur="9s" repeatCount="indefinite"/>
    </circle>
    <circle cx="638" cy="280" r="2.4" fill="#22d3ee" opacity="0">
      <animate attributeName="opacity" values="0;0;0.9;0.9;0;0" keyTimes="0;0.222;0.252;0.62;0.72;1" dur="9s" repeatCount="indefinite"/>
    </circle>
    <circle cx="684" cy="280" r="2.4" fill="#22d3ee" opacity="0">
      <animate attributeName="opacity" values="0;0;0.9;0.9;0;0" keyTimes="0;0.238;0.268;0.62;0.72;1" dur="9s" repeatCount="indefinite"/>
    </circle>
    <circle cx="730" cy="280" r="2.4" fill="#22d3ee" opacity="0">
      <animate attributeName="opacity" values="0;0;0.9;0.9;0;0" keyTimes="0;0.254;0.284;0.62;0.72;1" dur="9s" repeatCount="indefinite"/>
    </circle>
    <circle cx="776" cy="280" r="2.4" fill="#22d3ee" opacity="0">
      <animate attributeName="opacity" values="0;0;0.9;0.9;0;0" keyTimes="0;0.270;0.300;0.62;0.72;1" dur="9s" repeatCount="indefinite"/>
    </circle>
    <circle cx="822" cy="280" r="2.4" fill="#22d3ee" opacity="0">
      <animate attributeName="opacity" values="0;0;0.9;0.9;0;0" keyTimes="0;0.287;0.317;0.62;0.72;1" dur="9s" repeatCount="indefinite"/>
    </circle>
    <circle cx="868" cy="280" r="2.4" fill="#22d3ee" opacity="0">
      <animate attributeName="opacity" values="0;0;0.9;0.9;0;0" keyTimes="0;0.303;0.333;0.62;0.72;1" dur="9s" repeatCount="indefinite"/>
    </circle>
    <circle cx="914" cy="280" r="2.4" fill="#22d3ee" opacity="0">
      <animate attributeName="opacity" values="0;0;0.9;0.9;0;0" keyTimes="0;0.319;0.349;0.62;0.72;1" dur="9s" repeatCount="indefinite"/>
    </circle>
    <circle cx="960" cy="280" r="2.4" fill="#22d3ee" opacity="0">
      <animate attributeName="opacity" values="0;0;0.9;0.9;0;0" keyTimes="0;0.335;0.365;0.62;0.72;1" dur="9s" repeatCount="indefinite"/>
    </circle>
    <circle cx="40" cy="310" r="2.4" fill="#22d3ee" opacity="0">
      <animate attributeName="opacity" values="0;0;0.9;0.9;0;0" keyTimes="0;0.000;0.030;0.62;0.72;1" dur="9s" repeatCount="indefinite"/>
    </circle>
    <circle cx="86" cy="310" r="2.4" fill="#22d3ee" opacity="0">
      <animate attributeName="opacity" values="0;0;0.9;0.9;0;0" keyTimes="0;0.016;0.046;0.62;0.72;1" dur="9s" repeatCount="indefinite"/>
    </circle>
    <circle cx="132" cy="310" r="2.4" fill="#22d3ee" opacity="0">
      <animate attributeName="opacity" values="0;0;0.9;0.9;0;0" keyTimes="0;0.032;0.062;0.62;0.72;1" dur="9s" repeatCount="indefinite"/>
    </circle>
    <circle cx="178" cy="310" r="2.4" fill="#22d3ee" opacity="0">
      <animate attributeName="opacity" values="0;0;0.9;0.9;0;0" keyTimes="0;0.049;0.079;0.62;0.72;1" dur="9s" repeatCount="indefinite"/>
    </circle>
    <circle cx="224" cy="310" r="2.4" fill="#22d3ee" opacity="0">
      <animate attributeName="opacity" values="0;0;0.9;0.9;0;0" keyTimes="0;0.065;0.095;0.62;0.72;1" dur="9s" repeatCount="indefinite"/>
    </circle>
    <circle cx="270" cy="310" r="2.4" fill="#22d3ee" opacity="0">
      <animate attributeName="opacity" values="0;0;0.9;0.9;0;0" keyTimes="0;0.081;0.111;0.62;0.72;1" dur="9s" repeatCount="indefinite"/>
    </circle>
    <circle cx="316" cy="310" r="2.4" fill="#22d3ee" opacity="0">
      <animate attributeName="opacity" values="0;0;0.9;0.9;0;0" keyTimes="0;0.097;0.127;0.62;0.72;1" dur="9s" repeatCount="indefinite"/>
    </circle>
    <circle cx="362" cy="310" r="2.4" fill="#22d3ee" opacity="0">
      <animate attributeName="opacity" values="0;0;0.9;0.9;0;0" keyTimes="0;0.114;0.144;0.62;0.72;1" dur="9s" repeatCount="indefinite"/>
    </circle>
    <circle cx="408" cy="310" r="2.4" fill="#22d3ee" opacity="0">
      <animate attributeName="opacity" values="0;0;0.9;0.9;0;0" keyTimes="0;0.130;0.160;0.62;0.72;1" dur="9s" repeatCount="indefinite"/>
    </circle>
    <circle cx="454" cy="310" r="2.4" fill="#22d3ee" opacity="0">
      <animate attributeName="opacity" values="0;0;0.9;0.9;0;0" keyTimes="0;0.146;0.176;0.62;0.72;1" dur="9s" repeatCount="indefinite"/>
    </circle>
    <circle cx="500" cy="310" r="2.4" fill="#22d3ee" opacity="0">
      <animate attributeName="opacity" values="0;0;0.9;0.9;0;0" keyTimes="0;0.162;0.192;0.62;0.72;1" dur="9s" repeatCount="indefinite"/>
    </circle>
    <circle cx="546" cy="310" r="2.4" fill="#22d3ee" opacity="0">
      <animate attributeName="opacity" values="0;0;0.9;0.9;0;0" keyTimes="0;0.179;0.209;0.62;0.72;1" dur="9s" repeatCount="indefinite"/>
    </circle>
    <circle cx="592" cy="310" r="2.4" fill="#22d3ee" opacity="0">
      <animate attributeName="opacity" values="0;0;0.9;0.9;0;0" keyTimes="0;0.195;0.225;0.62;0.72;1" dur="9s" repeatCount="indefinite"/>
    </circle>
    <circle cx="638" cy="310" r="2.4" fill="#22d3ee" opacity="0">
      <animate attributeName="opacity" values="0;0;0.9;0.9;0;0" keyTimes="0;0.211;0.241;0.62;0.72;1" dur="9s" repeatCount="indefinite"/>
    </circle>
    <circle cx="684" cy="310" r="2.4" fill="#22d3ee" opacity="0">
      <animate attributeName="opacity" values="0;0;0.9;0.9;0;0" keyTimes="0;0.227;0.257;0.62;0.72;1" dur="9s" repeatCount="indefinite"/>
    </circle>
    <circle cx="730" cy="310" r="2.4" fill="#22d3ee" opacity="0">
      <animate attributeName="opacity" values="0;0;0.9;0.9;0;0" keyTimes="0;0.244;0.274;0.62;0.72;1" dur="9s" repeatCount="indefinite"/>
    </circle>
    <circle cx="776" cy="310" r="2.4" fill="#22d3ee" opacity="0">
      <animate attributeName="opacity" values="0;0;0.9;0.9;0;0" keyTimes="0;0.260;0.290;0.62;0.72;1" dur="9s" repeatCount="indefinite"/>
    </circle>
    <circle cx="822" cy="310" r="2.4" fill="#22d3ee" opacity="0">
      <animate attributeName="opacity" values="0;0;0.9;0.9;0;0" keyTimes="0;0.276;0.306;0.62;0.72;1" dur="9s" repeatCount="indefinite"/>
    </circle>
    <circle cx="868" cy="310" r="2.4" fill="#22d3ee" opacity="0">
      <animate attributeName="opacity" values="0;0;0.9;0.9;0;0" keyTimes="0;0.292;0.322;0.62;0.72;1" dur="9s" repeatCount="indefinite"/>
    </circle>
    <circle cx="914" cy="310" r="2.4" fill="#22d3ee" opacity="0">
      <animate attributeName="opacity" values="0;0;0.9;0.9;0;0" keyTimes="0;0.308;0.338;0.62;0.72;1" dur="9s" repeatCount="indefinite"/>
    </circle>
    <circle cx="960" cy="310" r="2.4" fill="#22d3ee" opacity="0">
      <animate attributeName="opacity" values="0;0;0.9;0.9;0;0" keyTimes="0;0.325;0.355;0.62;0.72;1" dur="9s" repeatCount="indefinite"/>
    </circle>
  </g>

  <!-- optimal route snaps in after the wave -->
  <g filter="url(#g)">
    <path d="M 40 310 L 638 310 L 638 280 L 960 280 L 960 100 L 960 40 L 730 40" stroke="url(#rt)" stroke-width="3" stroke-linecap="round" stroke-linejoin="round"
          stroke-dasharray="1420" stroke-dashoffset="1420">
      <animate attributeName="stroke-dashoffset" values="1420;1420;0;0;1420" keyTimes="0;0.44;0.58;0.86;1" dur="9s" repeatCount="indefinite"/>
    </path>
  </g>

  <!-- SRC / DST tags -->
  <g font-family="Consolas, Menlo, monospace" font-size="11">
    <circle cx="40" cy="310" r="5" fill="#22d3ee"/>
    <rect x="52" y="299" width="36" height="18" rx="4" fill="#0b1220" stroke="#22d3ee" stroke-opacity="0.5"/>
    <text x="70" y="312" text-anchor="middle" fill="#22d3ee">SRC</text>
    <circle cx="730" cy="40" r="5" fill="#a78bfa"/>
    <rect x="678" y="31" width="36" height="18" rx="4" fill="#0b1220" stroke="#a78bfa" stroke-opacity="0.5"/>
    <text x="696" y="44" text-anchor="middle" fill="#a78bfa">DST</text>
  </g>

  <text x="500" y="165" text-anchor="middle" fill="#f2f6fc"
        font-family="Segoe UI, Helvetica Neue, Arial, sans-serif" font-size="56" font-weight="700"
        letter-spacing="2">Raghhav Malani</text>
  <text x="500" y="200" text-anchor="middle" fill="#8494ac"
        font-family="Consolas, Menlo, monospace" font-size="15" letter-spacing="0.5">engines for real-world systems — roads · markets · ports · payments</text>
  <text x="500" y="224" text-anchor="middle" fill="#51607a"
        font-family="Consolas, Menlo, monospace" font-size="12.5">search expands · route resolves · every claim verified</text>
</svg>